<svg width="36" height="37" viewBox="0 0 36 37" fill="none" xmlns="http://www.w3.org/2000/svg">
<g clip-path="url(#clip0_1_1237)">
<g clip-path="url(#clip1_1_1237)">
<path d="M25.5 11.0601C20.3557 11.0601 15.9674 14.2972 14.261 18.8456L17.0707 19.8992C18.3505 16.4879 21.6417 14.0601 25.5 14.0601C26.5474 14.0601 27.5531 14.239 28.488 14.568C31.9898 15.8001 34.5 19.137 34.5 23.0601C34.5 28.0307 30.4706 32.0601 25.5 32.0601H10.5C5.52944 32.0601 1.5 28.0307 1.5 23.0601C1.5 19.137 4.01019 15.8001 7.51206 14.568C7.50405 14.3997 7.5 14.2304 7.5 14.0601C7.5 8.26108 12.201 3.56006 18 3.56006C22.863 3.56006 26.9539 6.86605 28.1478 11.3532C27.2959 11.1614 26.4097 11.0601 25.5 11.0601Z" fill="white"/>
</g>
</g>
<defs>
<clipPath id="clip0_1_1237">
<rect width="36" height="36" fill="white" transform="translate(0 0.560059)"/>
</clipPath>
<clipPath id="clip1_1_1237">
<rect width="36" height="36" fill="white" transform="translate(0 0.560059)"/>
</clipPath>
</defs>
</svg>
